# xmcd CD database file
#
# Track frame offsets:
#	150
#	15949
#	33178
#	51909
#	71888
#	88777
#	103554
#	118323
#	137309
#	153663
#	175245
#	191054
#	208335
#	228309
#	247788
#	262268
#
# Disc length: 3729 seconds
#
# Revision: 1
# Processed by: cddbd v1.5.2PL0 Copyright (c) Steve Scherf et al.
# Submitted via: CDex 1.70beta2
#
DISCID=e00e8f10
DTITLE=Enrique Iglesias - Escape [Exclusive Asian Edition] Disc 1
DYEAR=2002
DGENRE=Musical
TTITLE0=Enrique Iglesias - Escape
TTITLE1=Enrique Iglesias - Don't Turn off The Lights
TTITLE2=Enrique Iglesias - Love to See you Cry
TTITLE3=Enrique Iglesias - Hero
TTITLE4=Enrique Iglesias - I Will Survive
TTITLE5=Enrique Iglesias - Love 4 Fun
TTITLE6=Enrique Iglesias - Maybe
TTITLE7=Enrique Iglesias - One Night Stand
TTITLE8=Enrique Iglesias - She Be The One
TTITLE9=Enrique Iglesias - If The World Crashes Down
TTITLE10=Enrique Iglesias - Escapar
TTITLE11=Enrique Iglesias - No Apagues La Luz
TTITLE12=Enrique Iglesias - Heroe
TTITLE13=Enrique Iglesias - Hero (Metro Mix)
TTITLE14=Enrique Iglesias - Maybe (Mark Taylor Mix)
TTITLE15=Enrique Iglesias - To Love A Women
EXTD=YEAR: 2002
EXTT0=
EXTT1=
EXTT2=
EXTT3=
EXTT4=
EXTT5=
EXTT6=
EXTT7=
EXTT8=
EXTT9=
EXTT10=
EXTT11=
EXTT12=
EXTT13=
EXTT14=
EXTT15=
PLAYORDER=
